<svg xmlns="http://www.w3.org/2000/svg" version="1.1" xmlns:xlink="http://www.w3.org/1999/xlink" width="512" height="512" x="0" y="0" viewBox="0 0 96 96" style="enable-background:new 0 0 512 512" xml:space="preserve" class=""><g><path d="M94 56c0-4.831-2.876-8.994-7-10.895V44C87 22.495 69.505 5 48 5S9 22.495 9 44v1.105C4.876 47.006 2 51.17 2 56c0 6.617 5.383 12 12 12h4a2 2 0 0 0 2-2V46a2 2 0 0 0-2-2h-4c-.338 0-.67.023-1 .05V44C13 24.701 28.701 9 48 9s35 15.701 35 35v.05c-.33-.027-.662-.05-1-.05h-4a2 2 0 0 0-2 2v20a2 2 0 0 0 2 2h4c.338 0 .67-.023 1-.05V71c0 6.617-5.383 12-12 12H56c0-2.206-1.794-4-4-4H42c-2.206 0-4 1.794-4 4v4c0 2.206 1.794 4 4 4h10c2.206 0 4-1.794 4-4h15c8.822 0 16-7.178 16-16v-4.105c4.124-1.901 7-6.064 7-10.895zm-78-8v16h-2c-4.411 0-8-3.589-8-8s3.589-8 8-8zm26 39v-4h10l.001 1.986L52 85l.001.015.002 1.985zm40-23h-2V48h2c4.411 0 8 3.589 8 8s-3.589 8-8 8zm-34 5c12.13 0 22-9.87 22-22s-9.87-22-22-22-22 9.87-22 22c0 3.925 1.052 7.76 3.05 11.146l-2.014 10.477a2 2 0 0 0 2.757 2.213l8.98-3.876A21.707 21.707 0 0 0 48 69zm-16.322-3.334 1.446-7.528a2 2 0 0 0-.28-1.456A17.92 17.92 0 0 1 30 47c0-9.925 8.075-18 18-18s18 8.075 18 18-8.075 18-18 18c-2.892 0-5.669-.679-8.255-2.017a1.996 1.996 0 0 0-1.712-.06zM48 53H38a2 2 0 0 1 0-4h10a2 2 0 0 1 0 4zM36 43a2 2 0 0 1 2-2h20a2 2 0 0 1 0 4H38a2 2 0 0 1-2-2z" fill="#ffffff" opacity="1" data-original="#000000" class=""></path></g></svg>